<svg xmlns="http://www.w3.org/2000/svg" viewBox="0 0 2000 3000" style="enable-background:new 0 0 2000 3000" xml:space="preserve"><path d="m1000 2434.7-198.9 334.1L996 2434.1 422.9 2646l569.6-213.7-891.4-19.9 888.6 17.1-1122.4-338.6L987.8 2426l-1243.4-713 1242.9 709-1242.8-1106.5L987.9 2418.1-132.6 937.5l1122.4 1477L101.1 616l891.4 1795.7L422.9 382.4l573.2 2027.5-195-2150.3L1000 2409.3l198.9-2149.7L1004 2409.9l573.2-2027.5-569.6 2029.3L1898.9 616l-888.6 1798.5 1122.4-1477-1120.6 1480.6 1243.4-1102.6L1012.7 2422l1242.8-709.1-1243.4 713 1120.5-335.1-1122.4 338.6 888.6-17.1-891.4 19.9 569.6 213.7-573.2-211.9 194.9 334.7-198.7-334z" style="fill:#fff"/></svg>