<svg xmlns="http://www.w3.org/2000/svg" xmlns:xlink="http://www.w3.org/1999/xlink" viewBox="0 0 2000 3000">
  <defs>
    <style>
      .a, .h {
        fill: #8a9fa4;
      }

      .a, .b, .c, .d, .e, .f, .g, .h, .i {
        stroke: #000;
        stroke-width: 0.25px;
      }

      .b, .g {
        fill: #fff;
      }

      .c {
        fill: #c3cdd7;
      }

      .d, .f {
        fill: #8cb3db;
      }

      .e {
        fill: none;
      }

      .i {
        fill: #3a4757;
      }
      .blue {
        --wedge-color: #3a4757;
      }
    </style>
    <symbol id="wb" viewBox="0 0 113.58 64.7">
      <style>
        .cw {
          fill: var(--wedge-color)
        }
      </style>
      <path class="a cw" d="M3.28,4.36.15,32S56.79,17.86,56.79,64.7C56.79,17.86,113.43,32,113.43,32L110.3,4.36C87.44-1.34,29.93-1.23,3.28,4.36Z"/>
      <path class="b" d="M.15,32S25.2,25.76,42,35.35C33.16,30,8.68,33.45,8.68,33.45L0,32.08"/>
      <path class="b" d="M113.43,32s-25.06-6.27-41.85,3.32c8.84-5.32,33.31-1.9,33.31-1.9l8.66-1.38"/>
    </symbol>
    <symbol id="c" viewBox="0 0 210.85 420.03">
      <path class="a" d="M210.72,0q-28.8,217.05-105.3,215Q28.92,217,.12,0l55.3,420q-21.9-164.4,50-164.7,71.85.3,50,164.7Z"/>
    </symbol>
    <symbol id="g" viewBox="0 0 345.72 148.44">
      <path class="d" d="M172.86,0c1.43,20.32,9.8,60.4,172.84,87.8-167.23-20.58-171.58,36.62-172.84,60.5h0C171.59,124.43,167.25,67.23,0,87.81,163.06,60.41,171.43,20.33,172.86,0Z"/>
    </symbol>
    <symbol id="h" viewBox="0 0 47.93 90.1">
      <path class="b" d="M24,90.1C24,75.61,39.62,56.23,47.8,48,47.8,36.39,24,17.56,24,0,24,17.56.12,36.39.12,48,8.31,56.23,24,75.61,24,90.1Z"/>
      <path class="c" d="M45.09,39.85C34.91,49.38,27.6,58.1,24,68.84,20.33,58.1,13,49.4,2.83,39.86,9.07,28.56,24,13.88,24,0,24,13.88,38.85,28.55,45.09,39.85Z"/>
      <line class="b" x1="23.96" y1="68.84" x2="23.96" y2="90.1"/>
    </symbol>
  </defs>
  <g>
    <polygon class="f" points="1020.73 2312.57 1056.21 1414.45 941.71 1414.45 980.49 2312.5 1020.73 2312.57"/>
    <rect class="g" x="932.34" y="1407.11" width="135.32" height="7.43" rx="3.71"/>
    <rect class="g" x="952.07" y="1724.17" width="95.87" height="7.43" rx="3.71"/>
    <rect class="g" x="953.03" y="1761.82" width="93.94" height="7.43" rx="3.71"/>
    <rect class="g" x="954.56" y="1799.47" width="90.89" height="7.43" rx="3.71"/>
    <rect class="g" x="956.51" y="1837.12" width="86.99" height="7.43" rx="3.71"/>
    <rect class="g" x="958.05" y="1874.77" width="83.9" height="7.43" rx="3.71"/>
    <rect class="g" x="959.5" y="1912.42" width="81.01" height="7.43" rx="3.71"/>
    <rect class="g" x="961.19" y="1950.07" width="77.61" height="7.43" rx="3.71"/>
    <rect class="g" x="962.89" y="1987.72" width="74.22" height="7.43" rx="3.71"/>
    <path class="g" d="M1108.12,2074.94a212.16,212.16,0,0,0-216-.17l-4.22-7.57a220.86,220.86,0,0,1,224.88.45Z"/>
    <use class="blue" width="113.58" height="64.7" transform="translate(960.53 2021.25) scale(0.7 1.46)" xlink:href="#wb"/>
    <use class="blue" width="113.58" height="64.7" transform="translate(1057.53 1695.67) rotate(180) scale(1.01 1)" xlink:href="#wb"/>
    <use width="210.85" height="420.03" transform="matrix(0.2, 0.06, -0.08, 0.26, 1059.5, 1981.54)" xlink:href="#c"/>
    <use width="210.85" height="420.03" transform="matrix(0.18, 0.09, -0.12, 0.25, 1107.97, 1996.68)" xlink:href="#c"/>
    <use width="210.85" height="420.03" transform="matrix(0.2, -0.06, 0.08, 0.26, 899.72, 1993.62)" xlink:href="#c"/>
    <use width="210.85" height="420.03" transform="matrix(0.18, -0.09, 0.12, 0.25, 853.95, 2015.96)" xlink:href="#c"/>
    <g>
      <circle class="d" cx="1000.12" cy="2257.24" r="80.7"/>
      <path class="h" d="M1000.12,2434.05c133.16,0,225.73-73.49,225.73-73.49L1139,2241.43c44.94,62.66,20.64,98.32-39.06,117.71-60.33,19.59-99.86-3.53-99.86-56.37,0,52.84-39.52,76-99.85,56.37-59.7-19.39-84-55-39.06-117.71L774.4,2360.56S867,2434.05,1000.12,2434.05Z"/>
      <path class="c" d="M825.14,2318.29c.16.5-28,38.34-28,38.34s58.07,41.42,141.65,55.79c26.24-12,45.06-23.78,45.18-42.78C928.84,2403.92,838.92,2361.64,825.14,2318.29Z"/>
      <path class="c" d="M1175.24,2318.29c-.17.5,28,38.34,28,38.34s-58.07,41.42-141.65,55.79c-26.23-12-45.06-23.78-45.18-42.78C1071.53,2403.92,1161.45,2361.64,1175.24,2318.29Z"/>
      <use width="345.72" height="148.44" transform="translate(827.27 2370.07)" xlink:href="#g"/>
      <path class="b" d="M1000.12,2471.48s13.9-19.84,51.12-28.43c-37.55-15.44-51.12-33.1-51.12-33.1s-13.56,17.66-51.11,33.1C986.23,2451.64,1000.12,2471.48,1000.12,2471.48Z"/>
      <path class="i" d="M1000.12,2462c11-10.89,24.64-17.12,33-20.15a143.14,143.14,0,0,1-33-22.49,142.72,142.72,0,0,1-33,22.49C975.49,2444.83,989.08,2451.06,1000.12,2462Z"/>
      <line class="b" x1="967.12" y1="2441.8" x2="949.01" y2="2443.05"/>
      <line class="b" x1="1000.12" y1="2419.31" x2="1000.12" y2="2409.95"/>
      <line class="b" x1="1033.12" y1="2441.8" x2="1051.24" y2="2443.05"/>
      <line class="b" x1="1000.12" y1="2461.95" x2="1000.12" y2="2471.48"/>
      <use width="47.93" height="90.1" transform="translate(976.04 2167.17)" xlink:href="#h"/>
      <use width="47.93" height="90.1" transform="translate(1090.11 2233.31) rotate(90)" xlink:href="#h"/>
      <use width="47.93" height="90.1" transform="translate(909.9 2281.24) rotate(-90)" xlink:href="#h"/>
      <use width="47.93" height="90.1" transform="translate(1023.96 2347.45) rotate(180)" xlink:href="#h"/>
    </g>
  </g>
</svg>
