<svg xmlns="http://www.w3.org/2000/svg" xmlns:xlink="http://www.w3.org/1999/xlink" viewBox="0 0 2000 3000">
  <defs>
    <style>
      .a {
        fill: none;
      }

      .a, .b, .c, .e, .f, .g {
        stroke: #000;
        stroke-width: 0.25px;
      }

      .b, .c {
        fill: #fff;
      }

      .d, .f {
        fill: #1b1925;
      }

      .e {
        fill: #425288;
      }

      .g {
        fill: #aad37e;
      }
      .blue {
        --wedge-color: #425288;
      }
    </style>
    <symbol id="wb" viewBox="0 0 113.58 64.7">
      <style>
        .cw {
          fill: var(--wedge-color)
        }
      </style>
      <path class="a cw" d="M3.28,4.36.15,32S56.79,17.86,56.79,64.7C56.79,17.86,113.43,32,113.43,32L110.3,4.36C87.44-1.34,29.93-1.23,3.28,4.36Z"/>
      <path class="b" d="M.15,32S25.2,25.76,42,35.35C33.16,30,8.68,33.45,8.68,33.45L0,32.08"/>
      <path class="b" d="M113.43,32s-25.06-6.27-41.85,3.32c8.84-5.32,33.31-1.9,33.31-1.9l8.66-1.38"/>
    </symbol>
  </defs>
  <rect class="c" x="932.34" y="1407.11" width="135.32" height="7.43" rx="3.71"/>
  <path class="d" d="M1060.37,1414.53c-55.89,187.85-41.19,540.5-3.1,673.6,33.84,118.22,28,164.92,3.1,224.37H939.63c-24.87-59.45-30.74-106.15,3.1-224.37,38.09-133.1,52.79-485.75-3.1-673.6Z"/>
  <rect class="c" x="968.13" y="1872.46" width="63.75" height="7.43" rx="3.71"/>
  <rect class="c" x="965.24" y="1910.11" width="69.53" height="7.43" rx="3.71"/>
  <rect class="c" x="961.89" y="1947.76" width="76.21" height="7.43" rx="3.71"/>
  <rect class="c" x="957.71" y="1985.42" width="84.58" height="7.43" rx="3.71"/>
  <rect class="c" x="952.34" y="2023.07" width="95.31" height="7.43" rx="3.71"/>
  <path class="b" d="M1042.37,1824.1a233.6,233.6,0,0,1-84.85.09l1.74-11.88a221.54,221.54,0,0,0,81.62-.14Z"/>
  <path class="e" d="M916.49,1754.51c-16.93,41.41,10.56,48.51,45.38,51.59l-3.7,25.83c-31-27.59-59.35-37.66-76.7,4.67,16.44-40.6-2.06-54.22-50.75-57.78l17.32-20.1C860.89,1767.71,894.94,1805.21,916.49,1754.51Z"/>
  <path class="e" d="M1083.51,1754.51c16.93,41.41-10.56,48.51-45.38,51.59l3.7,25.83c31-27.59,59.35-37.66,76.7,4.67-16.44-40.6,2.06-54.22,50.75-57.78l-17.32-20.1C1139.11,1767.71,1105.06,1805.21,1083.51,1754.51Z"/>
  <g>
    <circle class="f" cx="1000" cy="2394.55" r="65.52"/>
    <path class="e" d="M1000,2342.27c32.21,0,16.36-29.78,139.83-16.19-86.7-14.18-139.54-36.64-139.83-71h0c-.29,34.36-53.13,56.82-139.83,71C983.64,2312.49,967.79,2342.27,1000,2342.27Z"/>
    <rect class="e" x="914.76" y="2375.4" width="170.48" height="38.31" rx="19.16"/>
    <path class="e" d="M1000,2763.05c0-116.17,66.07-174.07,148.34-201.87l-18.6-56.63c-109.58,20.79-98.24-62.3-129.74-62.3s-20.16,83.09-129.74,62.3l-18.6,56.63C933.93,2589,1000,2646.88,1000,2763.05Z"/>
    <path class="b" d="M1000,2662.47c3.87-8.43,27.43-73.82,124-113.07l-7.45-22.76c-33.32,5.72-91.7-4.19-116.59-65.21-24.89,61-83.27,70.93-116.59,65.21L876,2549.4C972.57,2588.65,996.13,2654,1000,2662.47Z"/>
    <path class="g" d="M1000,2644.66c10.86-21.45,43.5-69.61,114.4-99.65l-3.27-10.11c-58.55,7.07-99.61-31.3-111.13-56.07-11.52,24.77-52.58,63.14-111.13,56.07L885.6,2545C956.5,2575.05,989.14,2623.21,1000,2644.66Z"/>
    <line class="g" x1="883.41" y1="2526.64" x2="888.87" y2="2534.9"/>
    <line class="g" x1="875.96" y1="2549.4" x2="885.6" y2="2545.01"/>
    <line class="g" x1="1000" y1="2644.66" x2="1000" y2="2662.47"/>
    <line class="g" x1="1111.13" y1="2534.9" x2="1116.59" y2="2526.64"/>
    <line class="g" x1="1114.4" y1="2545.01" x2="1124.04" y2="2549.4"/>
    <line class="g" x1="1000" y1="2461.43" x2="1000" y2="2478.83"/>
    <path class="b" d="M1000,2327.76s8.26-8.59,23.66-14.82c-15.24-7.85-23.66-16.4-23.66-16.4s-8.42,8.55-23.66,16.4C991.74,2319.17,1000,2327.76,1000,2327.76Z"/>
    <polygon class="g" points="1000 2317.57 1007.43 2312.35 1000 2306.8 992.57 2312.35 1000 2317.57 1000 2317.57"/>
    <line class="a" x1="1000" y1="2296.54" x2="1000" y2="2306.8"/>
    <line class="a" x1="992.57" y1="2312.35" x2="976.34" y2="2312.94"/>
    <line class="a" x1="1000" y1="2317.57" x2="1000" y2="2327.76"/>
    <line class="a" x1="1007.43" y1="2312.35" x2="1023.66" y2="2312.94"/>
  </g>
  <use class="blue" width="113.58" height="64.7" transform="translate(1034.23 1845.27) rotate(180) scale(0.6 1.46)" xlink:href="#wb"/>
  <use class="blue" width="113.58" height="64.7" transform="translate(931.59 2063.6) scale(1.2 1.17)" xlink:href="#wb"/>
</svg>
