<?xml version="1.0" encoding="utf-8"?>
<!-- Generator: Adobe Illustrator 26.0.3, SVG Export Plug-In . SVG Version: 6.00 Build 0)  -->
<svg version="1.1" xmlns="http://www.w3.org/2000/svg" xmlns:xlink="http://www.w3.org/1999/xlink" x="0px" y="0px"
	 viewBox="0 0 2000 3000" style="enable-background:new 0 0 2000 3000;" xml:space="preserve">
<style type="text/css">
	.st0{fill:none;stroke:#DCD7AF;stroke-width:4;stroke-miterlimit:10;}
	.st1{fill:#DCD7AF;}
</style>
<symbol  id="Frame_border" viewBox="-433.4 -1413.6 866.8 2827.1">
	<path class="st0" d="M419.3,1389.5l12.1,17.6v-17.6v-32.8h-850.7v-2713.5h372.9v-32.8v-17.6l-12.1,17.6h-372.9v32.8v2713.5v32.8
		H419.3z"/>
</symbol>
<symbol  id="Star" viewBox="-59.9 -59.9 119.8 119.8">
	<path class="st1" d="M59.9,59.9C-0.6,5.8,2.8,3-59.8,59.9c56.3-58,55.5-62-0.1-119.7C2.8-2.9-0.7-5.6,59.8-59.9
		C5.4-1.5,3.6,0.7,59.9,59.9z"/>
</symbol>
<g id="frame">
	<g>
		<path class="st1" d="M1960,40v2920H40V40H1960 M2000,0H0v3000h2000V0L2000,0z"/>
	</g>
	
		<use xlink:href="#Frame_border"  width="866.8" height="2827.1" x="-433.4" y="-1413.6" transform="matrix(1 0 0 -1 508.8714 1500.0009)" style="overflow:visible;"/>
	
		<use xlink:href="#Frame_border"  width="866.8" height="2827.1" x="-433.4" y="-1413.6" transform="matrix(-1 0 0 -1 1491.2577 1499.7725)" style="overflow:visible;"/>
	<circle class="st1" cx="1000" cy="118.4" r="24.2"/>
	
		<use xlink:href="#Star"  width="119.8" height="119.8" x="-59.9" y="-59.9" transform="matrix(1 0 0 -1 215.571 256.0737)" style="overflow:visible;"/>
	
		<use xlink:href="#Star"  width="119.8" height="119.8" x="-59.9" y="-59.9" transform="matrix(1 0 0 -1 1785.0356 256.0737)" style="overflow:visible;"/>
	
		<use xlink:href="#Star"  width="119.8" height="119.8" id="XMLID_00000180335041339355196510000012397979799933630880_" x="-59.9" y="-59.9" transform="matrix(1 0 0 -1 215.571 2744.0227)" style="overflow:visible;"/>
	
		<use xlink:href="#Star"  width="119.8" height="119.8" x="-59.9" y="-59.9" transform="matrix(1 0 0 -1 1785.0356 2744.0227)" style="overflow:visible;"/>
	<path class="st1" d="M541.3,2828.4h917.5c27.2,0,49.3,22.1,49.3,49.3v2c0,27.2-22.1,49.3-49.3,49.3H541.3
		c-27.2,0-49.3-22.1-49.3-49.3v-2C491.9,2850.5,514,2828.4,541.3,2828.4z"/>
</g>
</svg>
