<svg xmlns="http://www.w3.org/2000/svg" xmlns:xlink="http://www.w3.org/1999/xlink" viewBox="0 0 2000 3000" style="enable-background:new 0 0 2000 3000" xml:space="preserve"><style>.st1{fill:#dcd7af}</style><symbol id="Frame_border" viewBox="-433.4 -1413.6 866.8 2827.1"><path d="m419.3 1389.5 12.1 17.6v-50.4h-850.7v-2713.5h372.9v-50.4l-12.1 17.6h-372.9V1389.5h850.7z" style="fill:none;stroke:#dcd7af;stroke-width:4;stroke-miterlimit:10"/></symbol><symbol id="Star" viewBox="-59.9 -59.9 119.8 119.8"><path class="st1" d="M59.9 59.9C-.6 5.8 2.8 3-59.8 59.9c56.3-58 55.5-62-.1-119.7C2.8-2.9-.7-5.6 59.8-59.9 5.4-1.5 3.6.7 59.9 59.9z"/></symbol><g id="frame"><path class="st1" d="M1960 40v2920H40V40h1920m40-40H0v3000h2000V0z"/><use xlink:href="#Frame_border" width="866.8" height="2827.1" x="-433.4" y="-1413.6" transform="matrix(1 0 0 -1 508.871 1500)" style="overflow:visible"/><use xlink:href="#Frame_border" width="866.8" height="2827.1" x="-433.4" y="-1413.6" transform="rotate(180 745.629 749.886)" style="overflow:visible"/><circle class="st1" cx="1000" cy="118.4" r="24.2"/><use xlink:href="#Star" width="119.8" height="119.8" x="-59.9" y="-59.9" transform="matrix(1 0 0 -1 215.571 256.074)" style="overflow:visible"/><use xlink:href="#Star" width="119.8" height="119.8" x="-59.9" y="-59.9" transform="matrix(1 0 0 -1 1785.036 256.074)" style="overflow:visible"/><use xlink:href="#Star" width="119.8" height="119.8" id="XMLID_00000180335041339355196510000012397979799933630880_" x="-59.9" y="-59.9" transform="matrix(1 0 0 -1 215.571 2744.023)" style="overflow:visible"/><use xlink:href="#Star" width="119.8" height="119.8" x="-59.9" y="-59.9" transform="matrix(1 0 0 -1 1785.036 2744.023)" style="overflow:visible"/><path class="st1" d="M541.3 2828.4h917.5c27.2 0 49.3 22.1 49.3 49.3v2c0 27.2-22.1 49.3-49.3 49.3H541.3c-27.2 0-49.3-22.1-49.3-49.3v-2c-.1-27.2 22-49.3 49.3-49.3z"/></g></svg>