<?xml version="1.0" encoding="utf-8"?>
<!-- Generator: Adobe Illustrator 26.0.3, SVG Export Plug-In . SVG Version: 6.00 Build 0)  -->
<svg version="1.1" xmlns="http://www.w3.org/2000/svg" xmlns:xlink="http://www.w3.org/1999/xlink" x="0px" y="0px"
	 viewBox="0 0 2000 3000" style="enable-background:new 0 0 2000 3000;" xml:space="preserve">
<style type="text/css">
	.st0{fill:#FFFFFF;}
</style>
		<path class="st0" d="M1000,2434.7l-198.9,334.1l194.9-334.7L422.9,2646l569.6-213.7l-891.4-19.9l888.6,17.1l-1122.4-338.6
			l1120.5,335.1l-1243.4-713L987.3,2422L-255.5,1315.5L987.9,2418.1L-132.6,937.5l1122.4,1477L101.1,616l891.4,1795.7L422.9,382.4
			l573.2,2027.5L801.1,259.6L1000,2409.3l198.9-2149.7l-194.9,2150.3l573.2-2027.5l-569.6,2029.3L1898.9,616l-888.6,1798.5
			l1122.4-1477L1012.1,2418.1l1243.4-1102.6L1012.7,2422l1242.8-709.1l-1243.4,713l1120.5-335.1l-1122.4,338.6l888.6-17.1
			l-891.4,19.9l569.6,213.7l-573.2-211.9l194.9,334.7L1000,2434.7z"/>
</svg>
